<mxfile host="65bd71144e">
    <diagram id="s8r2TS6MCktgYFGUhPnL" name="Page-1">
        <mxGraphModel dx="1874" dy="1819" grid="1" gridSize="10" guides="1" tooltips="1" connect="1" arrows="1" fold="1" page="0" pageScale="1" pageWidth="827" pageHeight="1169" background="#ffffff" math="0" shadow="0">
            <root>
                <mxCell id="0"/>
                <mxCell id="1" parent="0"/>
                <mxCell id="3" value="&lt;font style=&quot;font-size: 24px&quot;&gt;Components Diagram&lt;/font&gt;" style="text;html=1;align=center;verticalAlign=middle;whiteSpace=wrap;rounded=0;fontColor=#000000;fontStyle=1;fontSize=17;" parent="1" vertex="1">
                    <mxGeometry x="-700" y="-50" width="280" height="60" as="geometry"/>
                </mxCell>
                <mxCell id="5" value="Domain" style="swimlane;labelBackgroundColor=none;fontSize=17;fontColor=#ffffff;fillColor=#1ba1e2;strokeColor=#006EAF;" parent="1" vertex="1">
                    <mxGeometry x="-690" y="40" width="810" height="170" as="geometry"/>
                </mxCell>
                <mxCell id="33" value="" style="group" parent="5" vertex="1" connectable="0">
                    <mxGeometry x="300" y="231" width="220" height="70" as="geometry"/>
                </mxCell>
                <mxCell id="8" value="payments-engine" style="rounded=0;whiteSpace=wrap;html=1;labelBackgroundColor=none;fontSize=17;fontColor=#ffffff;fillColor=#a20025;strokeColor=#6F0000;sketch=0;" parent="33" vertex="1">
                    <mxGeometry width="220" height="70" as="geometry"/>
                </mxCell>
                <mxCell id="26" value="&lt;font style=&quot;font-size: 12px&quot;&gt;Engine impl&lt;/font&gt;" style="text;html=1;strokeColor=none;fillColor=none;align=center;verticalAlign=middle;whiteSpace=wrap;rounded=0;labelBackgroundColor=none;sketch=0;fontSize=24;fontColor=#FFFFFF;" parent="33" vertex="1">
                    <mxGeometry x="5" y="38.18181818181819" width="210" height="19.090909090909093" as="geometry"/>
                </mxCell>
                <mxCell id="34" value="" style="group" parent="5" vertex="1" connectable="0">
                    <mxGeometry x="300" y="50" width="220" height="70" as="geometry"/>
                </mxCell>
                <mxCell id="16" value="payments-engine-core" style="rounded=0;whiteSpace=wrap;html=1;labelBackgroundColor=none;fontSize=17;fontColor=#ffffff;fillColor=#1ba1e2;strokeColor=#006EAF;sketch=0;" parent="34" vertex="1">
                    <mxGeometry width="220" height="70" as="geometry"/>
                </mxCell>
                <mxCell id="25" value="&lt;font style=&quot;font-size: 12px&quot;&gt;Entities, Engine and Store traits&lt;/font&gt;" style="text;html=1;strokeColor=none;fillColor=none;align=center;verticalAlign=middle;whiteSpace=wrap;rounded=0;labelBackgroundColor=none;sketch=0;fontSize=24;fontColor=#FFFFFF;" parent="34" vertex="1">
                    <mxGeometry x="13.5" y="35" width="193" height="19.090909090909093" as="geometry"/>
                </mxCell>
                <mxCell id="21" style="edgeStyle=orthogonalEdgeStyle;html=1;entryX=0.5;entryY=1;entryDx=0;entryDy=0;shadow=0;fontSize=17;fontColor=#FFFFFF;strokeColor=#6F0000;fillColor=#a20025;" parent="5" source="8" target="16" edge="1">
                    <mxGeometry relative="1" as="geometry"/>
                </mxCell>
                <mxCell id="38" value="&lt;div&gt;&lt;font color=&quot;#000000&quot;&gt;Uses the entities from Core&lt;/font&gt;&lt;/div&gt;" style="text;html=1;strokeColor=none;fillColor=none;align=left;verticalAlign=middle;whiteSpace=wrap;rounded=0;sketch=1;fontColor=#FFFFFF;" parent="5" vertex="1">
                    <mxGeometry x="10" y="40" width="190" height="50" as="geometry"/>
                </mxCell>
                <mxCell id="36" value="&lt;div&gt;&lt;font color=&quot;#000000&quot;&gt;Implements the Store trait and uses memory as storage.&lt;/font&gt;&lt;/div&gt;" style="text;html=1;strokeColor=none;fillColor=none;align=left;verticalAlign=middle;whiteSpace=wrap;rounded=0;sketch=1;fontColor=#FFFFFF;" parent="5" vertex="1">
                    <mxGeometry x="610" y="37" width="190" height="50" as="geometry"/>
                </mxCell>
                <mxCell id="6" value="Application" style="swimlane;labelBackgroundColor=none;fontSize=17;fontColor=#ffffff;fillColor=#a20025;strokeColor=#6F0000;swimlaneFillColor=none;gradientColor=none;" parent="1" vertex="1">
                    <mxGeometry x="-690" y="221" width="810" height="150" as="geometry"/>
                </mxCell>
                <mxCell id="35" value="&lt;div&gt;&lt;span style=&quot;color: rgb(0 , 0 , 0)&quot;&gt;Engine is generic over Store, which i&lt;/span&gt;&lt;span style=&quot;color: rgb(0 , 0 , 0)&quot;&gt;s injected to the engine at the infrastructure layer by the CLI&lt;/span&gt;&lt;/div&gt;" style="text;html=1;strokeColor=none;fillColor=none;align=left;verticalAlign=middle;whiteSpace=wrap;rounded=0;sketch=1;fontColor=#FFFFFF;" parent="6" vertex="1">
                    <mxGeometry x="650" y="63.72999999999999" width="190" height="50" as="geometry"/>
                </mxCell>
                <mxCell id="42" value="&lt;div&gt;&lt;font color=&quot;#000000&quot;&gt;Implements the Engine trait&lt;/font&gt;&lt;/div&gt;" style="text;html=1;strokeColor=none;fillColor=none;align=left;verticalAlign=middle;whiteSpace=wrap;rounded=0;sketch=1;fontColor=#FFFFFF;" vertex="1" parent="6">
                    <mxGeometry x="250" y="9" width="190" height="50" as="geometry"/>
                </mxCell>
                <mxCell id="7" value="Infrastructure" style="swimlane;labelBackgroundColor=none;fontSize=17;fontColor=#ffffff;fillColor=#008a00;strokeColor=#005700;swimlaneFillColor=none;" parent="1" vertex="1">
                    <mxGeometry x="-690" y="401" width="810" height="250" as="geometry"/>
                </mxCell>
                <mxCell id="30" value="" style="group" parent="7" vertex="1" connectable="0">
                    <mxGeometry x="30" y="48.10000000000002" width="280" height="70" as="geometry"/>
                </mxCell>
                <mxCell id="14" value="payments-engine-csv" style="rounded=0;whiteSpace=wrap;html=1;labelBackgroundColor=none;fontSize=17;fontColor=#ffffff;fillColor=#008a00;strokeColor=#005700;sketch=0;" parent="30" vertex="1">
                    <mxGeometry width="280" height="70" as="geometry"/>
                </mxCell>
                <mxCell id="29" value="&lt;span style=&quot;font-size: 12px&quot;&gt;async io csv read-write&lt;/span&gt;" style="text;html=1;strokeColor=none;fillColor=none;align=center;verticalAlign=middle;whiteSpace=wrap;rounded=0;labelBackgroundColor=none;sketch=0;fontSize=24;fontColor=#FFFFFF;" parent="30" vertex="1">
                    <mxGeometry x="35" y="40.09090909090909" width="210" height="19.090909090909093" as="geometry"/>
                </mxCell>
                <mxCell id="31" value="" style="group" parent="7" vertex="1" connectable="0">
                    <mxGeometry x="500" y="48.10000000000002" width="280" height="70" as="geometry"/>
                </mxCell>
                <mxCell id="11" value="payments-engine-store-memory" style="rounded=0;whiteSpace=wrap;html=1;labelBackgroundColor=none;fontSize=17;fontColor=#ffffff;fillColor=#008a00;strokeColor=#005700;sketch=0;" parent="31" vertex="1">
                    <mxGeometry width="280" height="70" as="geometry"/>
                </mxCell>
                <mxCell id="27" value="&lt;font style=&quot;font-size: 12px&quot;&gt;Store impl&lt;/font&gt;" style="text;html=1;strokeColor=none;fillColor=none;align=center;verticalAlign=middle;whiteSpace=wrap;rounded=0;labelBackgroundColor=none;sketch=0;fontSize=24;fontColor=#FFFFFF;" parent="31" vertex="1">
                    <mxGeometry x="31" y="37.10000000000001" width="210" height="21" as="geometry"/>
                </mxCell>
                <mxCell id="32" value="" style="group" parent="7" vertex="1" connectable="0">
                    <mxGeometry x="285" y="160" width="250" height="70" as="geometry"/>
                </mxCell>
                <mxCell id="15" value="payments-engine-cli" style="rounded=0;whiteSpace=wrap;html=1;labelBackgroundColor=none;fontSize=17;fontColor=#ffffff;fillColor=#008a00;strokeColor=#005700;sketch=0;" parent="32" vertex="1">
                    <mxGeometry width="250" height="70.00000000000001" as="geometry"/>
                </mxCell>
                <mxCell id="28" value="&lt;span style=&quot;font-size: 12px&quot;&gt;Front-end&lt;/span&gt;" style="text;html=1;strokeColor=none;fillColor=none;align=center;verticalAlign=middle;whiteSpace=wrap;rounded=0;labelBackgroundColor=none;sketch=0;fontSize=24;fontColor=#FFFFFF;" parent="32" vertex="1">
                    <mxGeometry x="29.91071428571429" y="38.88888888888889" width="187.5" height="23.333333333333336" as="geometry"/>
                </mxCell>
                <mxCell id="18" style="edgeStyle=orthogonalEdgeStyle;html=1;entryX=0.5;entryY=1;entryDx=0;entryDy=0;shadow=0;fontSize=17;fontColor=#FFFFFF;strokeColor=#005700;fillColor=#008a00;" parent="7" source="15" target="14" edge="1">
                    <mxGeometry relative="1" as="geometry"/>
                </mxCell>
                <mxCell id="40" value="&lt;div&gt;&lt;font color=&quot;#000000&quot;&gt;The CLI manages all the dependencies to be used. It defines which Store impl and Engine it's going to be used.&lt;/font&gt;&lt;/div&gt;" style="text;html=1;strokeColor=none;fillColor=none;align=left;verticalAlign=middle;whiteSpace=wrap;rounded=0;sketch=1;fontColor=#FFFFFF;" parent="7" vertex="1">
                    <mxGeometry x="545" y="170" width="255" height="50" as="geometry"/>
                </mxCell>
                <mxCell id="23" style="edgeStyle=orthogonalEdgeStyle;html=1;entryX=0;entryY=0.5;entryDx=0;entryDy=0;shadow=0;fontSize=17;fontColor=#FFFFFF;strokeColor=#005700;fillColor=#008a00;" parent="1" source="14" target="16" edge="1">
                    <mxGeometry relative="1" as="geometry">
                        <Array as="points">
                            <mxPoint x="-710" y="484"/>
                            <mxPoint x="-710" y="125"/>
                        </Array>
                    </mxGeometry>
                </mxCell>
                <mxCell id="17" style="edgeStyle=orthogonalEdgeStyle;html=1;fontSize=17;fontColor=#FFFFFF;entryX=0.5;entryY=0;entryDx=0;entryDy=0;strokeColor=#6F0000;shadow=0;fillColor=#a20025;exitX=1;exitY=0.5;exitDx=0;exitDy=0;" parent="1" source="8" target="11" edge="1">
                    <mxGeometry relative="1" as="geometry">
                        <mxPoint x="-420" y="530" as="targetPoint"/>
                    </mxGeometry>
                </mxCell>
                <mxCell id="22" style="edgeStyle=orthogonalEdgeStyle;html=1;entryX=1;entryY=0.5;entryDx=0;entryDy=0;shadow=0;fontSize=17;fontColor=#FFFFFF;strokeColor=#005700;fillColor=#008a00;exitX=1;exitY=0.5;exitDx=0;exitDy=0;" parent="1" source="11" target="16" edge="1">
                    <mxGeometry relative="1" as="geometry">
                        <Array as="points">
                            <mxPoint x="160" y="484"/>
                            <mxPoint x="160" y="125"/>
                        </Array>
                    </mxGeometry>
                </mxCell>
                <mxCell id="19" style="edgeStyle=orthogonalEdgeStyle;html=1;entryX=0.5;entryY=1;entryDx=0;entryDy=0;shadow=0;fontSize=17;fontColor=#FFFFFF;strokeColor=#005700;fillColor=#008a00;" parent="1" source="15" target="8" edge="1">
                    <mxGeometry relative="1" as="geometry"/>
                </mxCell>
                <mxCell id="41" value="&lt;div&gt;&lt;font color=&quot;#000000&quot;&gt;&amp;nbsp; &amp;nbsp; &amp;nbsp;&lt;/font&gt;&lt;/div&gt;" style="text;html=1;strokeColor=none;fillColor=none;align=left;verticalAlign=middle;whiteSpace=wrap;rounded=0;sketch=1;fontColor=#FFFFFF;" parent="1" vertex="1">
                    <mxGeometry x="-690" y="654" width="190" height="50" as="geometry"/>
                </mxCell>
            </root>
        </mxGraphModel>
    </diagram>
</mxfile>